              =============!NO RARS OR PASSWORD!=============
Aqua – Megalomania
Genre: Pop
Country: Denmark
Year: 2011
Label: Universal Music (Denmark)
Audiocodec: FLAC
Bitrate: lossless
Source: Audio CD
Scans: yes

Tracklist:
01.Playmate To Jesus
02.Dirty Little Pop Song
03.Kill Myself
04.Like A Robot
05.Viva Las Vegas
06.No Party Patrol
07.Come N' Get It
08.Sucker For A Superstar
09.Be My Saviour Tonight
10.How R U Doin?
11.If The World Didn't Suck (We Would All Fall Off) 
                        ========================
EAC LOG
Exact Audio Copy V0.99 prebeta 5 from 4. May 2009

EAC extraction logfile from 14. October 2011, 15:56

Aqua / Megalomania

Used drive  : HL-DT-STDVDRAM GSA-T50N   Adapter: 1  ID: 0

Read mode               : Secure
Utilize accurate stream : Yes
Defeat audio cache      : Yes
Make use of C2 pointers : No

Read offset correction                      : 667
Overread into Lead-In and Lead-Out          : No
Fill up missing offset samples with silence : Yes
Delete leading and trailing silent blocks   : No
Null samples used in CRC calculations       : Yes
Used interface                              : Native Win32 interface for Win NT & 2000

Used output format : Internal WAV Routines
Sample format      : 44.100 Hz; 16 Bit; Stereo


TOC of the extracted CD

     Track |   Start  |  Length  | Start sector | End sector 
    ---------------------------------------------------------
        1  |  0:00.00 |  4:48.70 |         0    |    21669   
        2  |  4:48.70 |  3:51.14 |     21670    |    39008   
        3  |  8:40.09 |  3:31.45 |     39009    |    54878   
        4  | 12:11.54 |  3:39.11 |     54879    |    71314   
        5  | 15:50.65 |  3:24.60 |     71315    |    86674   
        6  | 19:15.50 |  3:22.24 |     86675    |   101848   
        7  | 22:37.74 |  3:27.10 |    101849    |   117383   
        8  | 26:05.09 |  3:20.52 |    117384    |   132435   
        9  | 29:25.61 |  3:17.74 |    132436    |   147284   
       10  | 32:43.60 |  3:23.15 |    147285    |   162524   
       11  | 36:07.00 |  3:21.66 |    162525    |   177665   


Range status and errors

Selected range

     Filename C:\Users\Fancy\Desktop\Aqua - Megalomania.wav

     Peak level 100.0 %
     Range quality 100.0 %
     Test CRC E2D64698
     Copy CRC E2D64698
     Copy OK

No errors occurred

 
AccurateRip summary
 
Track  1  not present in database
Track  2  not present in database
Track  3  not present in database
Track  4  not present in database
Track  5  not present in database
Track  6  not present in database
Track  7  not present in database
Track  8  not present in database
Track  9  not present in database
Track 10  not present in database
Track 11  not present in database
 
None of the tracks are present in the AccurateRip database

End of status report
